<?xml version="1.0" encoding="utf-8"?>
<!-- Generator: Adobe Illustrator 24.1.3, SVG Export Plug-In . SVG Version: 6.00 Build 0)  -->
<svg version="1.1" id="Calque_1" xmlns="http://www.w3.org/2000/svg" xmlns:xlink="http://www.w3.org/1999/xlink" x="0px" y="0px"
	 viewBox="0 0 100 98.8" style="enable-background:new 0 0 100 98.8;" xml:space="preserve">
<style type="text/css">
	.st0{fill:#D56C06;}
</style>
<path class="st0" d="M50,0c-0.8,0-1.6,0.3-2.2,0.9c-0.6,0.6-0.9,1.4-0.9,2.2v7.2v0c0,1.7,1.4,3.1,3.1,3.1c0.8,0,1.6-0.3,2.2-0.9
	c0.6-0.6,0.9-1.4,0.9-2.2V3.1v0c0-0.8-0.3-1.6-0.9-2.2C51.6,0.3,50.8,0,50,0L50,0z M83.1,13.7L83.1,13.7c-0.8,0-1.6,0.3-2.2,0.9
	l-5.1,5.1c-0.6,0.6-0.9,1.4-0.9,2.2s0.3,1.6,0.9,2.2c0.6,0.6,1.4,0.9,2.2,0.9s1.6-0.3,2.2-0.9l5.1-5.1v0c0.6-0.6,0.9-1.4,0.9-2.2
	s-0.3-1.6-0.9-2.2C84.8,14.1,84,13.7,83.1,13.7L83.1,13.7z M16.7,13.7L16.7,13.7c-0.8,0-1.5,0.4-2,0.9c-0.6,0.6-0.9,1.4-0.9,2.2
	s0.3,1.6,0.9,2.2l5.1,5.1c1.2,1.2,3.2,1.2,4.4,0c0.6-0.6,0.9-1.4,0.9-2.2s-0.3-1.6-0.9-2.2l-5.1-5.1C18.4,14,17.6,13.7,16.7,13.7
	L16.7,13.7z M50,16.7c-17.6,0-32,14.4-32,32c0,9.3,4.1,18.1,10.9,24.1c2.5,2.2,5.1,6.7,5.1,9.3v9.1c0,4.1,3.4,7.5,7.5,7.5h16.8
	c4.1,0,7.5-3.4,7.5-7.5v-9.1c0-2.6,2.6-7.1,5.1-9.3c6.8-6,10.9-14.7,10.9-24.1C82,31.1,67.6,16.7,50,16.7L50,16.7z M50,23
	c14.2,0,25.7,11.5,25.7,25.7c0,7.5-3.3,14.6-8.8,19.4c-2.6,2.3-5.1,5.5-6.4,9.1H39.5c-1.3-3.7-3.8-6.8-6.4-9.1
	c-5.5-4.8-8.8-11.9-8.8-19.4C24.3,34.4,35.7,23,50,23L50,23z M3.1,46.9c-0.8,0-1.6,0.3-2.2,0.9C0.3,48.4,0,49.2,0,50
	c0,1.7,1.4,3.1,3.1,3.1h7.2c0.8,0,1.6-0.3,2.2-0.9c0.6-0.6,0.9-1.4,0.9-2.2c0-0.8-0.3-1.6-0.9-2.2s-1.4-0.9-2.2-0.9L3.1,46.9z
	 M89.6,46.9c-0.8,0-1.6,0.3-2.2,0.9c-0.6,0.6-0.9,1.4-0.9,2.2c0,1.7,1.4,3.1,3.1,3.1h7.2c0.8,0,1.6-0.3,2.2-0.9
	c0.6-0.6,0.9-1.4,0.9-2.2c0-0.8-0.3-1.6-0.9-2.2c-0.6-0.6-1.4-0.9-2.2-0.9L89.6,46.9z M40.3,83.5h19.4v7.8c0,0.8-0.5,1.3-1.3,1.3
	H41.6c-0.8,0-1.3-0.5-1.3-1.3L40.3,83.5z"/>
</svg>
