<?xml version="1.0" encoding="utf-8"?>
<!-- Generator: Adobe Illustrator 24.1.3, SVG Export Plug-In . SVG Version: 6.00 Build 0)  -->
<svg version="1.1" id="Calque_1" xmlns="http://www.w3.org/2000/svg" xmlns:xlink="http://www.w3.org/1999/xlink" x="0px" y="0px"
	 viewBox="0 0 385.5 304.8" style="enable-background:new 0 0 385.5 304.8;" xml:space="preserve">
<style type="text/css">
	.st0{fill:#D56C06;}
</style>
<g>
	<path class="st0" d="M0.3,269.6c2.9,22.4,18,34.9,42.4,35.2h0.1h299.8c27.4,0,42.6-15.2,42.9-42.8v-0.1l0,0V43c0-0.1,0-0.2,0-0.3
		c-0.3-10.2-2.3-18.3-6.2-24.9c-0.1-0.2-0.2-0.4-0.3-0.6c-0.3-0.6-0.7-1.2-1.1-1.7c0,0,0-0.1-0.1-0.1c-2.1-3.1-4.8-5.8-8-7.8
		c-0.9-0.8-1.8-1.4-2.9-2c-3.1-1.7-6.4-3-10.3-3.9c-4.5-1.3-9.3-1.9-14.4-1.6H43c-20-0.4-30.4,8-35.5,15.2c-5,7-7.5,16.1-7.5,27.8
		V262l0,0C0,264.4,0,266.9,0.3,269.6z M141.1,154.5L20,242.3V43c0-3.3,0.3-6.2,0.8-8.8L141.1,154.5z M342.7,284.8H43
		c-12.3-0.2-20.9-3.3-22.8-17.8c0-0.1,0-0.1,0-0.2l135.3-98l8.3,8.3l0.1,0.1c12.2,11.9,25.4,16,39,12.2c0.1,0,0.2-0.1,0.3-0.1
		c6-1.9,12.2-5.6,18.2-11c0.5-0.4,0.9-0.9,1.3-1.4c0.3-0.3,0.6-0.5,0.9-0.8l6.7-6.7l135.1,97.5C363.9,279.7,357.2,284.8,342.7,284.8
		z M364.8,35.1c0.5,2.4,0.8,5,0.9,8v199.3l-120.9-87.2L364.8,35.1z M42.7,20c0.1,0,0.1,0,0.2,0h299.8c0.2,0,0.4,0,0.6,0
		c2.8-0.2,5.3,0.1,7.5,0.7L223.6,147.9c-0.5,0.4-1.1,0.8-1.5,1.3l-12.2,12.2c-1,0.8-1.9,1.6-2.7,2.6c-3.6,3.1-6.9,5.1-10,6.2
		c-4.1,1.1-10.5,1.5-19.4-7.2l-14.2-14.2l0,0L35.4,20.5C37.6,20.2,40,20,42.7,20z"/>
</g>
</svg>
