<?xml version="1.0" encoding="utf-8"?>
<!-- Generator: Adobe Illustrator 24.1.3, SVG Export Plug-In . SVG Version: 6.00 Build 0)  -->
<svg version="1.1" id="Calque_1" xmlns="http://www.w3.org/2000/svg" xmlns:xlink="http://www.w3.org/1999/xlink" x="0px" y="0px"
	 viewBox="0 0 100 100" style="enable-background:new 0 0 100 100;" xml:space="preserve">
<style type="text/css">
	.st0{fill:#D56C06;}
</style>
<g>
	<path class="st0" d="M0.1,80.4c0.8,5.8,4.7,9.1,11,9.1h0h77.8c7.1,0,11.1-3.9,11.1-11.1v0l0,0V21.6c0,0,0-0.1,0-0.1
		c-0.1-2.6-0.6-4.7-1.6-6.5c0-0.1-0.1-0.1-0.1-0.2c-0.1-0.2-0.2-0.3-0.3-0.4c0,0,0,0,0,0c-0.5-0.8-1.2-1.5-2.1-2
		c-0.2-0.2-0.5-0.4-0.8-0.5c-0.8-0.4-1.7-0.8-2.7-1c-1.2-0.3-2.4-0.5-3.7-0.4H11.2c-5.2-0.1-7.9,2.1-9.2,3.9C0.6,16.2,0,18.6,0,21.6
		v56.8l0,0C0,79.1,0,79.7,0.1,80.4z M36.6,50.5L5.2,73.3V21.6c0-0.9,0.1-1.6,0.2-2.3L36.6,50.5z M88.9,84.3H11.2
		c-3.2-0.1-5.4-0.9-5.9-4.6c0,0,0,0,0-0.1l35.1-25.4l2.2,2.2l0,0c3.2,3.1,6.6,4.2,10.1,3.2c0,0,0.1,0,0.1,0c1.6-0.5,3.2-1.5,4.7-2.9
		c0.1-0.1,0.2-0.2,0.3-0.4c0.1-0.1,0.2-0.1,0.2-0.2l1.7-1.7l35,25.3C94.4,83,92.7,84.3,88.9,84.3z M94.6,19.6
		c0.1,0.6,0.2,1.3,0.2,2.1v51.7L63.5,50.7L94.6,19.6z M11.1,15.7C11.1,15.7,11.1,15.7,11.1,15.7h77.8c0.1,0,0.1,0,0.2,0
		c0.7-0.1,1.4,0,1.9,0.2l-33,33c-0.1,0.1-0.3,0.2-0.4,0.3l-3.2,3.2c-0.3,0.2-0.5,0.4-0.7,0.7c-0.9,0.8-1.8,1.3-2.6,1.6
		c-1.1,0.3-2.7,0.4-5-1.9l-3.7-3.7l0,0L9.2,15.8C9.8,15.7,10.4,15.7,11.1,15.7z"/>
</g>
</svg>
