<?xml version="1.0" encoding="utf-8"?>
<!-- Generator: Adobe Illustrator 24.1.3, SVG Export Plug-In . SVG Version: 6.00 Build 0)  -->
<svg version="1.1" id="Calque_1" xmlns="http://www.w3.org/2000/svg" xmlns:xlink="http://www.w3.org/1999/xlink" x="0px" y="0px"
	 viewBox="0 0 58.8 80" style="enable-background:new 0 0 58.8 80;" xml:space="preserve">
<style type="text/css">
	.st0{fill:#D56C06;}
</style>
<path class="st0" d="M42.9,5.6C39.3,2,34.5,0,29.4,0C18.8,0,10.2,8.6,10.2,19.2v10H5.6c-3.1,0-5.6,2.5-5.6,5.6v39.6
	C0,77.5,2.5,80,5.6,80h47.6c3.1,0,5.6-2.5,5.6-5.6l0-39.6c0-3.1-2.5-5.6-5.6-5.6h-4.6v-10C48.6,14.1,46.6,9.2,42.9,5.6L42.9,5.6z
	 M13.1,19.2C13.1,10.2,20.4,3,29.4,3c4.3,0,8.4,1.7,11.5,4.8c3.1,3.1,4.8,7.1,4.8,11.5v10h-3.8v-10c0-3.3-1.3-6.5-3.6-8.8
	c-2.3-2.4-5.5-3.7-8.8-3.7c-6.9,0-12.5,5.6-12.5,12.5v10h-3.8L13.1,19.2z M38.9,19.2v10l-19,0v-10c0-5.2,4.3-9.5,9.5-9.5
	c2.5,0,4.9,1,6.7,2.8C37.9,14.3,38.9,16.6,38.9,19.2z M53.2,32.1c1.4,0,2.6,1.2,2.6,2.6v39.6c0,1.5-1.2,2.6-2.6,2.6H5.6
	c-1.4,0-2.6-1.2-2.6-2.6V34.8c0-1.4,1.2-2.6,2.6-2.6L53.2,32.1L53.2,32.1z"/>
<path class="st0" d="M24.8,54.9v11.3c0,0.8,0.7,1.5,1.5,1.5h6.2c0.8,0,1.5-0.7,1.5-1.5l0-11.3c1.7-1.4,2.7-3.4,2.7-5.6
	c0-4-3.3-7.3-7.3-7.3s-7.3,3.3-7.3,7.3C22.1,51.5,23.1,53.5,24.8,54.9L24.8,54.9z M29.4,45c2.4,0,4.3,1.9,4.3,4.3
	c0,1.5-0.8,2.8-2,3.6c-0.4,0.3-0.7,0.7-0.7,1.2v10.6h-3.2V54.1c0-0.5-0.3-1-0.7-1.2c-1.2-0.8-2-2.2-2-3.6C25.1,46.9,27,45,29.4,45
	L29.4,45z"/>
</svg>
