<?xml version="1.0" encoding="utf-8"?>
<!-- Generator: Adobe Illustrator 24.1.3, SVG Export Plug-In . SVG Version: 6.00 Build 0)  -->
<svg version="1.1" id="Calque_1" xmlns="http://www.w3.org/2000/svg" xmlns:xlink="http://www.w3.org/1999/xlink" x="0px" y="0px"
	 viewBox="0 0 82 82" style="enable-background:new 0 0 82 82;" xml:space="preserve">
<style type="text/css">
	.st0{fill:#D56C06;}
</style>
<g>
	<path class="st0" d="M41,2.8C62,2.8,79.2,20,79.2,41c0,10.2-4,19.5-10.6,26.3c-0.1-0.6-0.3-1.1-0.5-1.7l0-0.1l0-0.1
		c-2.3-4.5-5.6-8-9.7-10.3c-3.6-2-7.4-3.3-12-3.7c2.2-0.8,4.3-2.1,6-3.9c3-3,4.6-7,4.6-11.2c-0.1-9.1-6.6-15.6-15.8-16
		c-0.1,0-0.3,0-0.4,0c-8.3,0-15.6,7.3-15.8,15.9c-0.1,4.1,1.6,8.2,4.7,11.2c1.7,1.7,3.8,3.1,6.1,3.9c-2.7,0.3-5.4,1-8,2
		c-6.2,2.2-10.8,6.4-13.7,12.3c-0.2,0.4-0.4,1-0.6,1.7C6.9,60.5,2.8,51.2,2.8,41C2.8,20,20,2.8,41,2.8 M41,0C18.4,0,0,18.4,0,41
		s18.4,41,41,41s41-18.4,41-41S63.6,0,41,0L41,0z M41.1,49.6c-0.1,0-0.1,0-0.2,0c-7.1-0.1-13.2-6.2-13.1-13.2
		c0.2-7,6.1-13.1,13-13.1c0.1,0,0.2,0,0.3,0c7.8,0.3,12.9,5.9,13,13.2C54.2,43.6,48.1,49.6,41.1,49.6L41.1,49.6z M40.7,78.5
		c-6.3,0-12.3-1.5-18-4.6c-2-1.1-3.7-2.7-5.6-4c-1.2-0.8-1.1-1.7-0.5-2.9c2.6-5.3,6.6-8.9,12.1-10.9c3.6-1.3,7.3-2,10.8-2
		c0.4,0,0.9,0,1.3,0c0.3,0,0.6,0,0.9,0c5.6,0,10.6,0.9,15.2,3.6c3.8,2.1,6.6,5.2,8.6,9.1c0.6,1.3,0.5,2.3-0.8,3.3
		c-4.9,4.1-10.4,6.7-16.7,7.8C45.5,78.3,43.1,78.5,40.7,78.5L40.7,78.5z"/>
</g>
</svg>
