<?xml version="1.0" encoding="utf-8"?>
<!-- Generator: Adobe Illustrator 24.1.3, SVG Export Plug-In . SVG Version: 6.00 Build 0)  -->
<svg version="1.1" id="Calque_1" xmlns="http://www.w3.org/2000/svg" xmlns:xlink="http://www.w3.org/1999/xlink" x="0px" y="0px"
	 viewBox="0 0 82 82" style="enable-background:new 0 0 82 82;" xml:space="preserve">
<style type="text/css">
	.st0{fill:#D56C06;}
</style>
<path class="st0" d="M41,0C18.4,0,0,18.4,0,41s18.4,41,41,41s41-18.4,41-41S63.6,0,41,0z M41.1,23.3c7.8,0.3,12.9,5.9,13,13.2
	c0.1,7.2-6.1,13.2-13.2,13.1c-7.1-0.1-13.2-6.2-13.1-13.2C28,29.3,34.1,23.1,41.1,23.3z M64.7,70.1c-4.9,4.1-10.4,6.7-16.7,7.8
	c-8.9,1.5-17.4,0.4-25.3-4c-2-1.1-3.7-2.7-5.6-4c-1.2-0.8-1.1-1.7-0.5-2.9c2.6-5.3,6.6-8.9,12.1-10.9c4-1.5,8.2-2.2,12.1-2
	c5.9-0.1,11.2,0.8,16.1,3.6c3.8,2.1,6.6,5.2,8.6,9.1C66.1,68.1,66,69.1,64.7,70.1z"/>
</svg>
